<?xml version="1.0" standalone="no"?>
<!DOCTYPE svg PUBLIC "-//W3C//DTD SVG 20010904//EN"
 "http://www.w3.org/TR/2001/REC-SVG-20010904/DTD/svg10.dtd">
<svg version="1.0" xmlns="http://www.w3.org/2000/svg"
 width="500.000000pt" height="500.000000pt" viewBox="0 0 500.000000 500.000000"
 preserveAspectRatio="xMidYMid meet">
<metadata>
Created by potrace 1.11, written by Peter Selinger 2001-2013
</metadata>
<g transform="translate(0.000000,500.000000) scale(0.100000,-0.100000)"
fill="#000000" stroke="none">
<path d="M2022 2633 l3 -698 110 0 110 0 5 308 5 307 259 -310 258 -310 144 0
c79 0 144 4 144 9 0 5 -133 162 -295 349 -162 188 -295 347 -295 354 1 7 121
164 269 348 l268 335 -126 3 c-69 1 -130 1 -136 -2 -7 -2 -119 -138 -251 -302
l-239 -297 -3 301 -2 302 -115 0 -115 0 2 -697z"/>
</g>
</svg>
